<svg xmlns="http://www.w3.org/2000/svg" viewBox="0 0 240 240" width="240" height="240">
<defs>
<radialGradient id="bbBody" cx="0.35" cy="0.3" r="0.85"><stop offset="0" stop-color="#7C87C9"/><stop offset="0.55" stop-color="#4E5AA0"/><stop offset="1" stop-color="#333B72"/></radialGradient>
<filter id="softShadow" x="-60%" y="-60%" width="220%" height="220%">
  <feDropShadow dx="0" dy="6.7" stdDeviation="4.8" flood-color="#2B1E16" flood-opacity="0.30"/>
</filter>
</defs>
<ellipse cx="122" cy="205" rx="66" ry="10" fill="#2B1E16" opacity="0.22"/><circle cx="85" cy="150" r="34" fill="url(#bbBody)" filter="url(#softShadow)"/><ellipse cx="74.12" cy="138.1" rx="10.2" ry="7.48" fill="#FFFFFF" opacity="0.4"/><polygon points="85.0,178.9 80.8,175.8 82.4,170.9 87.6,170.9 89.2,175.8" fill="#20264A" opacity="0.55"/><circle cx="140" cy="158" r="38" fill="url(#bbBody)" filter="url(#softShadow)"/><ellipse cx="127.84" cy="144.7" rx="11.4" ry="8.36" fill="#FFFFFF" opacity="0.4"/><polygon points="140.0,190.3 135.3,186.9 137.1,181.4 142.9,181.4 144.7,186.9" fill="#20264A" opacity="0.55"/><circle cx="105" cy="108" r="30" fill="url(#bbBody)" filter="url(#softShadow)"/><ellipse cx="95.4" cy="97.5" rx="9.0" ry="6.6" fill="#FFFFFF" opacity="0.4"/><polygon points="105.0,133.5 101.3,130.8 102.7,126.4 107.3,126.4 108.7,130.8" fill="#20264A" opacity="0.55"/><circle cx="160" cy="112" r="33" fill="url(#bbBody)" filter="url(#softShadow)"/><ellipse cx="149.44" cy="100.45" rx="9.9" ry="7.26" fill="#FFFFFF" opacity="0.4"/><polygon points="160.0,140.0 155.9,137.1 157.5,132.3 162.5,132.3 164.1,137.1" fill="#20264A" opacity="0.55"/><circle cx="128" cy="70" r="26" fill="url(#bbBody)" filter="url(#softShadow)"/><ellipse cx="119.68" cy="60.9" rx="7.8" ry="5.72" fill="#FFFFFF" opacity="0.4"/><polygon points="128.0,92.1 124.8,89.8 126.0,86.0 130.0,86.0 131.2,89.8" fill="#20264A" opacity="0.55"/></svg>
