<svg xmlns="http://www.w3.org/2000/svg" viewBox="0 0 260 360" width="260" height="360">
<defs><linearGradient id="creamBody" x1="0" y1="0" x2="0" y2="1"><stop offset="0" stop-color="#FFFFFF"/><stop offset="1" stop-color="#F1E6D2"/></linearGradient>
<linearGradient id="glassBody" x1="0" y1="0" x2="1" y2="0.2"><stop offset="0" stop-color="#FFFFFF"/><stop offset="0.5" stop-color="#EAF3F7"/><stop offset="1" stop-color="#D8E6EC"/></linearGradient><linearGradient id="shakeFill" x1="0" y1="0" x2="0" y2="1"><stop offset="0" stop-color="#D3E0AE"/><stop offset="0.5" stop-color="#A6C36F"/><stop offset="1" stop-color="#7E9A50"/></linearGradient>
<filter id="softShadow" x="-60%" y="-60%" width="220%" height="220%">
  <feDropShadow dx="0" dy="10.1" stdDeviation="7.2" flood-color="#2B1E16" flood-opacity="0.30"/>
</filter>
</defs>
<ellipse cx="130" cy="330" rx="78" ry="12" fill="#2B1E16" opacity="0.22"/><path d="M34,70 L226,70 C222,160 202,220 196,300 C194,312 66,312 64,300 C58,220 38,160 34,70 Z" fill="url(#glassBody)" opacity="0.55" filter="url(#softShadow)"/><clipPath id="glassClip"><path d="M34,70 L226,70 C222,160 202,220 196,300 C194,312 66,312 64,300 C58,220 38,160 34,70 Z"/></clipPath><g clip-path="url(#glassClip)"><path d="M43.052173913043475,118 Q130,108 216.94782608695652,118 C214.94782608695652,312 45.052173913043475,312 43.052173913043475,300 C37.052173913043475,220 41,160 43.052173913043475,118 Z" fill="url(#shakeFill)"/><ellipse cx="106" cy="150" rx="14" ry="60" fill="#FFFFFF" opacity="0.12"/></g><path d="M34,70 L226,70 C222,160 202,220 196,300 C194,312 66,312 64,300 C58,220 38,160 34,70 Z" fill="none" stroke="#FFFFFF" stroke-width="2.5" opacity="0.65"/><ellipse cx="130" cy="70" rx="96" ry="10" fill="none" stroke="#FFFFFF" stroke-width="2" opacity="0.5"/><circle cx="90" cy="250" r="4" fill="#FFFFFF" opacity="0.55"/><circle cx="176" cy="230" r="3.5" fill="#FFFFFF" opacity="0.55"/><circle cx="100" cy="270" r="3" fill="#FFFFFF" opacity="0.55"/><circle cx="168" cy="265" r="4.5" fill="#FFFFFF" opacity="0.55"/><circle cx="120" cy="285" r="3" fill="#FFFFFF" opacity="0.55"/><circle cx="150" cy="200" r="3" fill="#FFFFFF" opacity="0.55"/><g filter="url(#softShadow)"><ellipse cx="130" cy="89.0" rx="73.2" ry="14.5" fill="url(#creamBody)"/><ellipse cx="111.7" cy="84.6" rx="25.6" ry="4.4" fill="#FFFFFF" opacity="0.6"/><ellipse cx="130" cy="78.8" rx="58.4" ry="10.9" fill="url(#creamBody)"/><ellipse cx="115.4" cy="75.5" rx="20.4" ry="3.3" fill="#FFFFFF" opacity="0.6"/><ellipse cx="130" cy="68.5" rx="43.7" ry="7.3" fill="url(#creamBody)"/><ellipse cx="119.1" cy="66.4" rx="15.3" ry="2.2" fill="#FFFFFF" opacity="0.6"/><ellipse cx="130" cy="58.3" rx="28.9" ry="3.6" fill="url(#creamBody)"/><ellipse cx="122.8" cy="57.2" rx="10.1" ry="1.1" fill="#FFFFFF" opacity="0.6"/><path d="M92.24000000000001,83.7 Q130,77.1 167.76,83.7" stroke="#D8C7A8" stroke-width="1.4" fill="none" opacity="0.5"/><path d="M92.24000000000001,72.7 Q130,66.1 167.76,72.7" stroke="#D8C7A8" stroke-width="1.4" fill="none" opacity="0.5"/><path d="M92.24000000000001,61.7 Q130,55.1 167.76,61.7" stroke="#D8C7A8" stroke-width="1.4" fill="none" opacity="0.5"/></g><defs><linearGradient id="pshell0" x1="0" y1="0" x2="1" y2="1"><stop offset="0" stop-color="#EFE3C8"/><stop offset="1" stop-color="#C9AE7C"/></linearGradient><linearGradient id="pnut0" x1="0" y1="0" x2="0" y2="1"><stop offset="0" stop-color="#B7CE86"/><stop offset="1" stop-color="#7E9A50"/></linearGradient></defs><g transform="rotate(-15 104 44)" filter="url(#softShadow)"><path d="M92.0,44 C92.0,25.0 100.0,18.0 104,18.0 C108.0,18.0 116.0,25.0 116.0,44 C116.0,61.0 108.0,69.0 104,69.0 C100.0,69.0 92.0,61.0 92.0,44 Z" fill="url(#pshell0)"/><path d="M101.0,21.0 C96.0,34.0 96.0,54.0 101.0,66.0 L107.0,66.0 C102.0,53.0 102.0,34.0 107.0,21.0 Z" fill="url(#pnut0)"/></g><defs><linearGradient id="pshell1" x1="0" y1="0" x2="1" y2="1"><stop offset="0" stop-color="#EFE3C8"/><stop offset="1" stop-color="#C9AE7C"/></linearGradient><linearGradient id="pnut1" x1="0" y1="0" x2="0" y2="1"><stop offset="0" stop-color="#B7CE86"/><stop offset="1" stop-color="#7E9A50"/></linearGradient></defs><g transform="rotate(10 126 44)" filter="url(#softShadow)"><path d="M114.0,44 C114.0,25.0 122.0,18.0 126,18.0 C130.0,18.0 138.0,25.0 138.0,44 C138.0,61.0 130.0,69.0 126,69.0 C122.0,69.0 114.0,61.0 114.0,44 Z" fill="url(#pshell1)"/><path d="M123.0,21.0 C118.0,34.0 118.0,54.0 123.0,66.0 L129.0,66.0 C124.0,53.0 124.0,34.0 129.0,21.0 Z" fill="url(#pnut1)"/></g><defs><linearGradient id="pshell2" x1="0" y1="0" x2="1" y2="1"><stop offset="0" stop-color="#EFE3C8"/><stop offset="1" stop-color="#C9AE7C"/></linearGradient><linearGradient id="pnut2" x1="0" y1="0" x2="0" y2="1"><stop offset="0" stop-color="#B7CE86"/><stop offset="1" stop-color="#7E9A50"/></linearGradient></defs><g transform="rotate(-25 150 44)" filter="url(#softShadow)"><path d="M138.0,44 C138.0,25.0 146.0,18.0 150,18.0 C154.0,18.0 162.0,25.0 162.0,44 C162.0,61.0 154.0,69.0 150,69.0 C146.0,69.0 138.0,61.0 138.0,44 Z" fill="url(#pshell2)"/><path d="M147.0,21.0 C142.0,34.0 142.0,54.0 147.0,66.0 L153.0,66.0 C148.0,53.0 148.0,34.0 153.0,21.0 Z" fill="url(#pnut2)"/></g><circle cx="105.7" cy="63.9" r="2.4" fill="#7E9A50" opacity="0.8"/><circle cx="141.9" cy="58.0" r="2.6" fill="#7E9A50" opacity="0.8"/><circle cx="105.9" cy="61.2" r="2.3" fill="#7E9A50" opacity="0.8"/><circle cx="115.6" cy="61.9" r="1.5" fill="#7E9A50" opacity="0.8"/><circle cx="95.6" cy="67.7" r="1.7" fill="#7E9A50" opacity="0.8"/><circle cx="138.5" cy="63.4" r="1.9" fill="#7E9A50" opacity="0.8"/><circle cx="168.6" cy="65.7" r="2.1" fill="#7E9A50" opacity="0.8"/><circle cx="160.8" cy="59.7" r="1.6" fill="#7E9A50" opacity="0.8"/><circle cx="164.3" cy="72.4" r="1.7" fill="#7E9A50" opacity="0.8"/><circle cx="103.9" cy="70.8" r="2.5" fill="#7E9A50" opacity="0.8"/><circle cx="104.5" cy="75.0" r="2.5" fill="#7E9A50" opacity="0.8"/><circle cx="138.7" cy="64.4" r="1.5" fill="#7E9A50" opacity="0.8"/><circle cx="91.3" cy="75.3" r="1.7" fill="#7E9A50" opacity="0.8"/><circle cx="147.2" cy="61.1" r="2.4" fill="#7E9A50" opacity="0.8"/><g filter="url(#softShadow)"><path d="M96,20 L84,54 L112,96" stroke="#FFFFFF" stroke-width="12" fill="none" stroke-linecap="round"/><line x1="92.0" y1="24" x2="100.0" y2="32" stroke="#E8536B" stroke-width="4" opacity="0.85"/><line x1="91.4" y1="36" x2="99.4" y2="44" stroke="#E8536B" stroke-width="4" opacity="0.85"/><line x1="90.8" y1="48" x2="98.8" y2="56" stroke="#E8536B" stroke-width="4" opacity="0.85"/><line x1="90.2" y1="60" x2="98.2" y2="68" stroke="#E8536B" stroke-width="4" opacity="0.85"/><line x1="89.6" y1="72" x2="97.6" y2="80" stroke="#E8536B" stroke-width="4" opacity="0.85"/><line x1="89.0" y1="84" x2="97.0" y2="92" stroke="#E8536B" stroke-width="4" opacity="0.85"/></g></svg>
